<mxfile host="app.diagrams.net" modified="2020-09-02T20:24:26.750Z" agent="5.0 (Macintosh; Intel Mac OS X 10_14_6) AppleWebKit/537.36 (KHTML, like Gecko) Chrome/84.0.4147.135 Safari/537.36" etag="dugLPs16DiqKH5xs2ka3" version="13.6.6" type="github">
  <diagram id="krRePJoaKOWN8vSAJQVV" name="Page-1">
    <mxGraphModel dx="786" dy="513" grid="1" gridSize="10" guides="1" tooltips="1" connect="1" arrows="1" fold="1" page="1" pageScale="1" pageWidth="850" pageHeight="1100" math="0" shadow="0">
      <root>
        <mxCell id="0" />
        <mxCell id="1" parent="0" />
        <mxCell id="ZvJrhPuNabyA14El5122-11" value="" style="group" vertex="1" connectable="0" parent="1">
          <mxGeometry x="80" y="120" width="410" height="120" as="geometry" />
        </mxCell>
        <mxCell id="ZvJrhPuNabyA14El5122-1" value="Url" style="rounded=0;whiteSpace=wrap;html=1;" vertex="1" parent="ZvJrhPuNabyA14El5122-11">
          <mxGeometry width="120" height="40" as="geometry" />
        </mxCell>
        <mxCell id="ZvJrhPuNabyA14El5122-2" value="RawHTML" style="rounded=0;whiteSpace=wrap;html=1;" vertex="1" parent="ZvJrhPuNabyA14El5122-11">
          <mxGeometry y="80" width="120" height="40" as="geometry" />
        </mxCell>
        <mxCell id="ZvJrhPuNabyA14El5122-4" value="" style="endArrow=classic;html=1;" edge="1" parent="ZvJrhPuNabyA14El5122-11">
          <mxGeometry relative="1" as="geometry">
            <mxPoint x="120" y="20" as="sourcePoint" />
            <mxPoint x="320" y="20" as="targetPoint" />
          </mxGeometry>
        </mxCell>
        <mxCell id="ZvJrhPuNabyA14El5122-5" value="AtomizedStringForUrl" style="edgeLabel;resizable=0;html=1;align=center;verticalAlign=middle;" connectable="0" vertex="1" parent="ZvJrhPuNabyA14El5122-4">
          <mxGeometry relative="1" as="geometry" />
        </mxCell>
        <mxCell id="ZvJrhPuNabyA14El5122-8" value="" style="endArrow=classic;html=1;" edge="1" parent="ZvJrhPuNabyA14El5122-11">
          <mxGeometry relative="1" as="geometry">
            <mxPoint x="120" y="99.5" as="sourcePoint" />
            <mxPoint x="320" y="100" as="targetPoint" />
          </mxGeometry>
        </mxCell>
        <mxCell id="ZvJrhPuNabyA14El5122-9" value="AtomizedStringForRawHTML" style="edgeLabel;resizable=0;html=1;align=center;verticalAlign=middle;" connectable="0" vertex="1" parent="ZvJrhPuNabyA14El5122-8">
          <mxGeometry relative="1" as="geometry" />
        </mxCell>
        <mxCell id="ZvJrhPuNabyA14El5122-10" value="AtomizedString" style="rounded=0;whiteSpace=wrap;html=1;" vertex="1" parent="ZvJrhPuNabyA14El5122-11">
          <mxGeometry x="320" width="90" height="120" as="geometry" />
        </mxCell>
        <mxCell id="ZvJrhPuNabyA14El5122-12" value="Trie" style="rounded=0;whiteSpace=wrap;html=1;" vertex="1" parent="1">
          <mxGeometry x="590" y="120" width="120" height="40" as="geometry" />
        </mxCell>
        <mxCell id="ZvJrhPuNabyA14El5122-13" value="" style="endArrow=classic;html=1;" edge="1" parent="1">
          <mxGeometry relative="1" as="geometry">
            <mxPoint x="490" y="139.5" as="sourcePoint" />
            <mxPoint x="590" y="139.5" as="targetPoint" />
          </mxGeometry>
        </mxCell>
        <mxCell id="ZvJrhPuNabyA14El5122-14" value="WithLatestFrom" style="edgeLabel;resizable=0;html=1;align=center;verticalAlign=middle;" connectable="0" vertex="1" parent="ZvJrhPuNabyA14El5122-13">
          <mxGeometry relative="1" as="geometry" />
        </mxCell>
        <mxCell id="ZvJrhPuNabyA14El5122-15" value="" style="endArrow=classic;html=1;" edge="1" parent="1" target="ZvJrhPuNabyA14El5122-16">
          <mxGeometry width="50" height="50" relative="1" as="geometry">
            <mxPoint x="490" y="220" as="sourcePoint" />
            <mxPoint x="520" y="220" as="targetPoint" />
          </mxGeometry>
        </mxCell>
        <mxCell id="ZvJrhPuNabyA14El5122-16" value="IFrame" style="whiteSpace=wrap;html=1;aspect=fixed;" vertex="1" parent="1">
          <mxGeometry x="520" y="180" width="80" height="80" as="geometry" />
        </mxCell>
        <mxCell id="ZvJrhPuNabyA14El5122-18" value="SentenceData" style="rounded=0;whiteSpace=wrap;html=1;" vertex="1" parent="1">
          <mxGeometry x="760" y="120" width="120" height="40" as="geometry" />
        </mxCell>
        <mxCell id="ZvJrhPuNabyA14El5122-19" value="" style="endArrow=classic;html=1;exitX=1;exitY=0.5;exitDx=0;exitDy=0;entryX=0;entryY=0.5;entryDx=0;entryDy=0;" edge="1" parent="1" source="ZvJrhPuNabyA14El5122-12" target="ZvJrhPuNabyA14El5122-18">
          <mxGeometry width="50" height="50" relative="1" as="geometry">
            <mxPoint x="570" y="290" as="sourcePoint" />
            <mxPoint x="620" y="240" as="targetPoint" />
          </mxGeometry>
        </mxCell>
      </root>
    </mxGraphModel>
  </diagram>
</mxfile>
